<svg xmlns="http://www.w3.org/2000/svg" viewBox="0 0 216.58 37.44"><g id="Ebene_2" data-name="Ebene 2"><g id="Calque_1" data-name="Calque 1"><path d="M0,15.85C1.18,11.34,3.07,7.3,6.8,4.24a18.73,18.73,0,0,1,21.93-1.3C35.84,7.65,39,15.85,36.78,23.59a18.74,18.74,0,0,1-36,.7c-.26-.85-.53-1.7-.8-2.56Zm13.32,2.63c0,2.2,0,4.41,0,6.61,0,1.51.62,2.21,2.14,1.33L26.7,19.9c1.57-.91,1.13-1.76-.13-2.5-3.6-2.11-7.21-4.17-10.81-6.27-1.74-1-2.41-.3-2.43,1.46C13.3,14.55,13.32,16.51,13.32,18.48Z" style="fill:#fff"/><path d="M95.34,11.44c0,2.12.06,4.24,0,6.35,0,.52-.56,1-.86,1.51-.42-.49-1.17-1-1.19-1.46-.11-3.1-.1-6.2,0-9.3,0-.52.65-1.46.91-1.43a3,3,0,0,1,2,1c1.54,2.14,2.92,4.4,4.36,6.62l.58-.18c0-1.92-.1-3.86.06-5.77,0-.6.8-1.13,1.23-1.7.36.56,1,1.1,1,1.67.11,2.85.12,5.72,0,8.57a6.29,6.29,0,0,1-.86,2.06c-.79-.43-1.83-.68-2.31-1.34-1.58-2.16-3-4.47-4.42-6.73Z" style="fill:#fff"/><path d="M44.7,11.75c0,1.94.09,3.89,0,5.83,0,.65-.67,1.25-1,1.88-.37-.59-1-1.17-1.05-1.77-.11-2.93-.1-5.88,0-8.82a5.57,5.57,0,0,1,.8-1.82c.68.33,1.61.49,2,1a79.73,79.73,0,0,0,5,6.9c0-2.05-.09-4.1.05-6.14,0-.61.72-1.17,1.11-1.76.35.55,1,1.1,1,1.66.1,3,.1,6,0,9.07,0,.57-.57,1.53-1,1.59a2.25,2.25,0,0,1-1.75-.9c-1.59-2.26-3-4.61-4.54-6.93Z" style="fill:#fff"/><path d="M152.05,15.26c.77,1.19,1.56,2.38,2.36,3.62-1.62.53-1.62.53-5.58-3.91a20.62,20.62,0,0,1-.24,3.24c-.12.49-.74.87-1.13,1.3-.38-.44-1.09-.87-1.1-1.31-.09-3.26-.09-6.53,0-9.79A2,2,0,0,1,147.42,7c2.54-.94,6,.11,7,2C155.61,11.23,155,13,152.05,15.26Zm-4.17-4c1.07.94,1.89,2,2.23,1.89a11.38,11.38,0,0,0,2.64-2,9.48,9.48,0,0,0-2.54-2C149.81,9.05,149,10.23,147.88,11.21Z" style="fill:#fff"/><path d="M120.3,15.29l2.75,3.91c-3.83.8-3.81-3.08-6.07-4.1a26.23,26.23,0,0,1-.18,3.13c-.08.44-.6.8-.92,1.2-.38-.33-1.07-.65-1.08-1-.08-3.42-.07-6.85,0-10.27a1.51,1.51,0,0,1,.79-1.07c2-1,6.06.06,7.09,1.81,1.29,2.18.6,4.07-2.19,6.05C120.43,15,120.41,15.1,120.3,15.29ZM116,11.07c1.18,1,2,2.17,2.42,2a10.39,10.39,0,0,0,2.63-2,8.71,8.71,0,0,0-2.5-1.95C118.05,9,117.2,10.1,116,11.07Z" style="fill:#fff"/><path d="M213.79,15.32l2.45,3.93c-3.64.58-3.69-3-6.09-4.41a30.72,30.72,0,0,1,0,3.37c-.05.45-.54.84-.83,1.26-.42-.39-1.19-.77-1.2-1.17-.09-3.35-.07-6.7,0-10a1.64,1.64,0,0,1,.75-1.13c1.67-1,6,0,7,1.49,1.38,2,.82,4.17-1.54,6.1A5.31,5.31,0,0,0,213.79,15.32ZM209.21,11c1.2,1.08,2,2.23,2.43,2.1,1-.32,2.31-1.09,2.54-1.94.38-1.46-.93-2.23-2.29-2C211.14,9.23,210.5,10.06,209.21,11Z" style="fill:#fff"/><path d="M166,6.17c1.33.69,2.29.92,2.83,1.53a6.57,6.57,0,0,1,.85,2.35,15.25,15.25,0,0,0-2.13-.64,14,14,0,0,0-2.24,0c.22.67.26,1.55.72,1.95.64.57,1.9.56,2.35,1.19.83,1.17,1.89,2.73,1.69,3.92a4.52,4.52,0,0,1-2.88,3c-1.21.26-2.81-.74-4-1.52-.4-.25-.18-1.5-.25-2.3l1.93,1c.61.32,1.22.9,1.82.89a1.75,1.75,0,0,0,1.28-1.19,2.43,2.43,0,0,0-.81-1.82c-.75-.58-1.8-.77-2.62-1.29-1.48-.93-2.24-2.46-1.48-4C163.63,8,165,7.19,166,6.17Z" style="fill:#fff"/><path d="M185.84,20.46c-1.39-1.25-2.53-2.17-3.51-3.23-.24-.25,0-1,.1-1.51a9.58,9.58,0,0,1,1.69.46c.25.11.34.72.55.75a23.49,23.49,0,0,0,2.52.12c-.15-.84,0-2-.51-2.47-.68-.71-2.12-.76-2.71-1.5-.77-1-1.58-2.5-1.35-3.56a4.17,4.17,0,0,1,2.68-2.64c1.07-.22,2.47.68,3.57,1.36.36.22.22,1.26.3,1.93-.61-.16-1.23-.29-1.83-.5a11.11,11.11,0,0,0-1.84-.75c-.21,0-.85.86-.76,1a5.49,5.49,0,0,0,1.44,1.7c.84.61,2.27.85,2.62,1.62a6.25,6.25,0,0,1,.55,4.24C189,18.61,187.33,19.28,185.84,20.46Z" style="fill:#fff"/><path d="M83,13.15V11.68c0-4.94.82-5.63,5.7-4.71.46.08.84.56,1.26.86A15.35,15.35,0,0,1,88.63,9c-.16.12-.47,0-.72.06-1.1.07-2.44-.22-2.48,1.55-.05,2,1.44,1.49,2.58,1.7a7.85,7.85,0,0,1,1.92.92A7.57,7.57,0,0,1,88,14c-1.2.16-2.54-.17-2.57,1.75,0,2.08,1.43,1.69,2.69,1.87a6.09,6.09,0,0,1,1.84,1,6,6,0,0,1-1.8.77c-5.15.32-5.15.3-5.15-4.79Z" style="fill:#fff"/><path d="M55.83,13.09V11.38c0-4.47,1.28-5.47,5.74-4.39.44.11.77.64,1.16,1-.38.35-.71.86-1.15,1-.6.19-1.4-.1-1.92.17a3.08,3.08,0,0,0-1.5,1.63c-.08.36.79,1.16,1.38,1.44a22.46,22.46,0,0,0,3.2,1,19.62,19.62,0,0,0-3.26,1.25,2.84,2.84,0,0,0-1.31,1.83c-.05.38.9,1,1.51,1.32a28.83,28.83,0,0,0,3,1.11,13,13,0,0,1-3.21,1c-3.58.13-3.66,0-3.67-3.64Z" style="fill:#fff"/><path d="M135.8,13.19c0-.9-.06-1.8,0-2.69.13-1.54-.73-3.59,2.18-3.62,3.63,0,5.61.94,5.92,3.32s-.81,3.92-3.5,4.34c-1.76.27-2.59.92-2.5,2.82,0,.62-.74,1.29-1.15,1.94a6.59,6.59,0,0,1-.91-2,38.09,38.09,0,0,1,0-4.14ZM140,8.71l-1,.08c-.35.7-1.05,1.46-1,2.09s1,1.2,1.5,1.8c.7-.63,1.8-1.17,2-1.92C141.69,10.22,140.57,9.4,140,8.71Z" style="fill:#fff"/><path d="M176.27,6.91a1.61,1.61,0,0,1,.49,0c1,.35,1.88.73,2.82,1.09a22.19,22.19,0,0,0-2.68,1c-.72.39-1.76.9-1.9,1.53-.33,1.47.87,1.66,2,1.65a4.72,4.72,0,0,1,1.46.08,4.12,4.12,0,0,1,1.06.79c-.38.31-.72.79-1.15.91-.61.17-1.42-.13-1.92.15S175,15.25,175,15.83s.79,1.38,1.42,1.72a18.13,18.13,0,0,0,3.12,1,18.2,18.2,0,0,1-3.49.82c-3.36.1-3.37,0-3.38-3.38q0-2.82,0-5.64C172.7,6.9,172.7,6.9,176.27,6.91Z" style="fill:#fff"/><path d="M129.46,19.75c-3.51-.31-3.51-.31-3.51-3.84,0-2.28.06-4.57,0-6.86-.05-1.59.62-2.23,2.18-2.15,1.14.06,2.29-.05,3.42.08.42,0,.78.6,1.17.92-.38.35-.71.86-1.15,1-.6.19-1.39-.08-1.92.19s-1.35,1-1.36,1.52.74,1.24,1.32,1.54a20.76,20.76,0,0,0,3.08,1.08,15.28,15.28,0,0,0-3,.91c-.63.33-1.43,1.1-1.44,1.68s.77,1.37,1.39,1.73a16.9,16.9,0,0,0,3,1.11Z" style="fill:#fff"/><path d="M198.67,13.28V11.07C198.67,6.94,199.89,6,204,7c.43.1.75.65,1.12,1a4.89,4.89,0,0,1-1.22.92c-.52.18-1.22-.07-1.68.18s-1.2.9-1.23,1.4a2.14,2.14,0,0,0,1,1.63,19.19,19.19,0,0,0,3.15,1.09,12.15,12.15,0,0,0-3.24,1.34c-.6.47-.68,1.6-1,2.42s-.72,1.56-1.08,2.33a9.17,9.17,0,0,1-1.06-2.36A24.81,24.81,0,0,1,198.67,13.28Z" style="fill:#fff"/><path d="M68.39,6.93A6.48,6.48,0,0,1,70.1,7a7.32,7.32,0,0,1,1.49.92,12.15,12.15,0,0,0-1,1.16c-.44.66-1.11,1.35-1.16,2.07-.15,2.28,0,4.57-.11,6.86,0,.51-.56,1-.86,1.49C68,19,67.3,18.54,67.25,18c-.16-1.7,0-3.43-.11-5.14s.72-3.6-1.82-4.11c.21-.6.27-1.56.66-1.72A6.88,6.88,0,0,1,68.39,7Z" style="fill:#fff"/><path d="M109.09,6.93a6.42,6.42,0,0,1,1.7,0,6.92,6.92,0,0,1,1.54.86,10.94,10.94,0,0,0-1,1.16c-.44.67-1.11,1.36-1.16,2.09-.16,2.19,0,4.41-.13,6.61,0,.55-.64,1.08-1,1.62-.37-.54-1-1.05-1-1.62-.15-1.78-.06-3.59-.09-5.38,0-1.41.41-3.06-1.64-3.61,0,0,.1-1.53.4-1.64A7.77,7.77,0,0,1,109.09,7Z" style="fill:#fff"/><path d="M159.92,13.31c0,1.63.07,3.25,0,4.87,0,.39-.65.75-1,1.12-.34-.37-1-.73-1-1.1q-.12-5,0-10c0-.38.63-.75,1-1.13.35.37,1,.73,1,1.12C160,9.9,159.93,11.61,159.92,13.31Z" style="fill:#fff"/><path d="M76.45,11.68l2.42,1.8c-.71.35-1.44,1-2.13,1a8.75,8.75,0,0,1-2.59-1Z" style="fill:#fff"/><path d="M196,13.47c-.89.71-1.41,1.44-1.88,1.4s-1-.76-1.48-1.19c.43-.48.81-1.26,1.31-1.35S195,12.89,196,13.47Z" style="fill:#fff"/></g></g></svg>