<svg xmlns="http://www.w3.org/2000/svg" viewBox="0 0 94.36 102.41"><g id="Ebene_2" data-name="Ebene 2"><g id="Calque_1" data-name="Calque 1"><path d="M31.16,68.26V24.41a23.17,23.17,0,0,0-6,10.32C24.2,38.29,23.68,42,23,45.58l-.62,0a16,16,0,0,1-.24-2.28,34.55,34.55,0,0,1,7.55-21,7,7,0,0,0,1.58-4.73C31.14,11.78,31.2,6,31.2,0H93.84V68.26Zm24-22.76.63.45,26-17.26c2.75,3.29,3.36,5.22,5.3,16.44,1.5.6,2.07-.08,1.88-1.51a106.46,106.46,0,0,0-1.66-10.71,20.64,20.64,0,0,0-4.79-9.46L57,39.92V8.42c-10.13.34-18.2,4.47-24.93,11.41-.57.59-.53,1.77-.78,2.67l.51.36c6.58-5.93,14-9.78,23.29-9.8Z" style="fill:#fff"/><path d="M33.67,75.42V98.11c-1.4-.6-2.73-.81-3.5-1.57-4.32-4.27-8.5-8.68-12.74-13A5.65,5.65,0,0,0,15,81.93v5.79c0,2.69,0,5.37,0,8,0,1.55-.71,1.94-2.2,1.39V75.4c1.85-.67,3.16-.23,4.59,1.2,4.51,4.49,9.22,8.79,13.86,13.17,0-.6.16-1.56.17-2.52,0-3.39,0-6.79,0-10.18C31.4,75.53,31.91,74.85,33.67,75.42Z" style="fill:#fff"/><path d="M86.53,84.63h6.93l.23,2.12H86.53v8.86l7.23-.37v2.4c-3.7,0-7.32,0-10.93-.06a1.82,1.82,0,0,1-1.22-1.26c-.08-6.93,0-13.86,0-21.12,4,0,7.75,0,11.5.07.38,0,.73,1.07,1.3,2H86.53Z" style="fill:#fff"/><path d="M73.82,75.17c.56,1.77.08,2.32-1.48,2.24-1.86-.11-3.72,0-5.59,0l-.37,7.24c2.24,0,4.11.08,6,0,1.67-.1,1.85.67,1.49,1.94-1.86,0-3.65,0-5.44,0-1.36,0-2,.38-2,1.89.11,2.26,0,4.53,0,7.14l7.33-.37c.66,1.77.14,2.47-1.75,2.42-3.3-.08-6.6,0-10.21,0V90.29c0-4.35,0-8.69,0-13,0-1.46.34-2.16,2-2.11C67.11,75.24,70.42,75.17,73.82,75.17Z" style="fill:#fff"/><path d="M40.61,96.49l.72-3c1.41.94,2.66,2.17,4.16,2.7a3.66,3.66,0,0,0,4.79-2c.89-1.78.26-3.6-1.7-4.85-1.13-.71-2.37-1.25-3.56-1.86-3.64-1.9-5.06-4.65-4.16-8.06s3.65-5.31,7.55-5.1a32.08,32.08,0,0,1,4.94,1.08l-.83,2.71A22,22,0,0,0,48,76.05a3.07,3.07,0,0,0-3.66,2.31A3.14,3.14,0,0,0,46,82.2c1.47.92,3.06,1.64,4.55,2.52,3.25,1.91,4.36,4.29,3.68,7.7-.53,2.68-3.07,4.87-6.24,5.37A9.88,9.88,0,0,1,40.61,96.49Z" style="fill:#fff"/><path d="M4.17,97.32H0v-22H4.17Z" style="fill:#fff"/><path d="M91.86,102.41H30.94v-.47H91.85Z" style="fill:#fff"/></g></g></svg>