<svg xmlns="http://www.w3.org/2000/svg" viewBox="0 0 167.47 52.57"><g id="Ebene_2" data-name="Ebene 2"><g id="Calque_1" data-name="Calque 1"><path d="M87.16,25.14A18.65,18.65,0,0,1,82,38.31c-5.47,6.15-12.32,10.42-19.66,13.94a3.21,3.21,0,0,1-2.41-.13c-2.1-1-4.08-2.26-6.18-3.25a3.09,3.09,0,0,0-2.33-.09,55.94,55.94,0,0,0-6,3.2,3.24,3.24,0,0,1-3.67,0,51.62,51.62,0,0,0-5.57-3,4.08,4.08,0,0,0-2.92,0c-2,.84-3.83,2.12-5.84,3a4.09,4.09,0,0,1-3,0C17.1,48.45,10.3,44.25,4.87,38c-6.39-7.41-6.54-16.08-.17-23.53C10,8.27,16.63,4,23.77.47a5.85,5.85,0,0,1,4.1,0c2.44.87,4.74,3,7.09,3S39.4,1.26,41.74.32a5.47,5.47,0,0,1,3.66,0c2,.78,3.83,2.11,5.83,3a3.48,3.48,0,0,0,2.52-.06c1.93-.86,3.68-2.12,5.63-2.88a4.89,4.89,0,0,1,3.51,0C70.45,3.89,77.4,8.38,82.76,15,85.45,18.29,87.25,22,87.16,25.14ZM56.56,35.7A13.71,13.71,0,0,0,56,33.83c-2.3-5.28-4.64-10.54-7-15.82-.49-1.1-1-2.36-2.46-1.92A4.43,4.43,0,0,0,44.11,18c-2,4.27-3.87,8.65-5.76,13-.66,1.5-1.29,3-2,4.55,2.46.76,3.32.72,3.72-.83.9-3.46,3.25-3.82,6.15-3.51a6.84,6.84,0,0,0,2,0c2.2-.37,3.57.29,4.1,2.65C52.83,36,54.37,36.48,56.56,35.7ZM75.27,18.86a10.37,10.37,0,1,0-14.92,14.4c3.94,3.9,10.26,4.3,14.07.78a2.2,2.2,0,0,0,.37-2.1c-.38-.47-1.42-.47-2.19-.53-.28,0-.59.39-.9.58A6.56,6.56,0,0,1,63,30.93a7.69,7.69,0,0,1-.1-9.85,6.64,6.64,0,0,1,8.74-.95C73.62,21.57,74.45,20.73,75.27,18.86ZM39,16.14c-4.86,0-9.56,0-14.25.07-.37,0-1,1-1,1.56-.07,5.53,0,11.06-.05,16.59,0,1.57,1.06,2.06,2.12,1.54A3.35,3.35,0,0,0,27,33.38c.17-5.32.11-5.37,5.27-5.56,1.81-.07,2.6-.91,2.76-2.88-1.11-.05-2.1-.16-3.08-.15-5.95.07-4.58-.14-5-4.81a4.49,4.49,0,0,1,.26-.9c2.72,0,5.6-.14,8.46.05C37.67,19.26,38.69,18.57,39,16.14Zm-21.56,10c0-2.62,0-5.24,0-7.85,0-1.17-.1-2.2-1.68-2.23s-1.82.84-1.81,2.1q0,8,0,15.92c0,1.15.29,2,1.68,2s1.82-.84,1.81-2.1C17.42,31.36,17.44,28.74,17.44,26.13Z" style="fill:#fff"/><path d="M105.34,18v-.44c0-5.49,2-7.13,7.4-5.75A3.49,3.49,0,0,1,115,14a47.34,47.34,0,0,1,.23,8c-.07,1.64-1.28,2.52-2.9,2.76l-.43,0C104.89,25.13,105.28,23.8,105.34,18Zm2.28.3h-.05c.05.94-.17,2,.25,2.77a3.12,3.12,0,0,0,2.25,1.4c.89,0,2.35-.57,2.56-1.21a16.54,16.54,0,0,0,.49-4.94c0-1.9-1.16-2.56-3-2.53s-2.53,1.06-2.48,2.77C107.63,17.13,107.62,17.71,107.62,18.29Z" style="fill:#fff"/><path d="M100.4,11.89l-4.35,7.47c2.64,1,3.08.72,3.77-1.67.17-.59.8-1,1.21-1.54a15.15,15.15,0,0,1,.89,1.75c.18.46.07,1.06.31,1.46.38.6,1.47,1.3,1.35,1.59a13.3,13.3,0,0,1-2.07,3.34c-.18.21-1.62-.15-1.65-.35-.27-2-1.73-1.8-3.11-1.84-1.15,0-2.3-.18-3.42-.27C92.79,18.46,97.4,11.58,100.4,11.89Z" style="fill:#fff"/><path d="M94.1,29.61h73.37v.28H94.09Z" style="fill:#fff"/><path d="M46.75,20.81l3.12,7.24H43.05l3.05-7.2Z" style="fill:#fff"/></g></g></svg>