<svg xmlns="http://www.w3.org/2000/svg" viewBox="0 0 152.98 51.9"><g id="Ebene_2" data-name="Ebene 2"><g id="Calque_1" data-name="Calque 1"><path d="M62.34,41.53,60.8,39.69c1.4-.21,2.7-.32,4-.61,3.89-.88,6-3.6,7.06-7.22.46-1.53,0-2.09-1.55-2.16a20.3,20.3,0,0,0-4.34,0c-.8.14-1.49,1-2.19,1.63-.38.33-.62.9-1,1.1-.72.32-1.73.82-2.28.55-1.35-.65-2.68-1.61-2.44-3.47s.51-3.51.8-5.25a1.25,1.25,0,0,1,.39-.54c1.1-1.07,4.51-.57,5,.88s1.47,1.74,2.85,1.6c1.17-.13,2.35,0,3.52-.1s1.72-.66,1.41-1.77c-.37-1.31-.9-2.59-1.4-3.86a7.34,7.34,0,0,0-1-2.09c-1.94-2.27-4.8-1.12-7.18-1.78a16.79,16.79,0,0,0-4-.05c1.78-2.75,3.41-5.36,5.16-7.89.37-.55,1.16-.8,1.71-1.16A7.88,7.88,0,0,1,66.52,5.8,25.52,25.52,0,0,1,88,.54c2.39.46,5.13.66,7.1,2.76.83.88,2.44,1,3.35,1.83,3.51,3.19,7.46,6.07,8.71,11.24a32.68,32.68,0,0,1-5,.48,2.45,2.45,0,0,0-2,.65c-.8.66-1.87,1-2.65,1.68a19.65,19.65,0,0,0-2.45,2.7,5.35,5.35,0,0,0-.88,1.65,9.78,9.78,0,0,0,0,1.44c-.5,3.21-.44,6.38,1.23,9.27a10.69,10.69,0,0,0,8.08,5.17c1.32.21,1.55.78.78,1.78-4.31,5.62-9.84,9.37-16.92,10.35-4.8.66-9.63.52-14.17-1.47a27.92,27.92,0,0,1-9.69-6.83,14.92,14.92,0,0,1-1.2-1.74ZM91.82,42a6.62,6.62,0,0,1-.33-1.65c0-1.11-.3-1.75-1.5-1.58-1.61.21-1.93-.57-1.92-2,.08-5.86,0-11.72.05-17.57,0-1.1-.25-1.63-1.49-1.6-2.95.08-5.91.05-8.86,0-1.07,0-1.66.24-1.67,1.47s.36,2,1.7,1.81,1.77.49,1.75,1.83c-.07,4.52-.09,9,0,13.55,0,1.72-.18,2.82-2.28,2.53-1.14-.15-1.15.77-1.14,1.59S76.08,42,77.25,42ZM82,14.38c2.92-.09,5.51-1,6-4.53a4.72,4.72,0,0,0-2.9-4.49,4.37,4.37,0,0,0-5.26,1.43C77.6,10,79,12.46,82,14.38Zm-2.81,8.46H79V35.76h.15Z" style="fill:#fff"/><path d="M22.27,21.72c-2,0-3.79.05-5.56,0a1.74,1.74,0,0,1-1.17-.82c-1.17-2.19-5.83-3.05-7.66-1.36-1.12,1-.76,2.4.88,2.89,1.93.56,3.92.89,5.86,1.41a26,26,0,0,1,4.6,1.47,6.27,6.27,0,0,1,1.24,10.84,8.23,8.23,0,0,1-2.77,1.51,20.11,20.11,0,0,1-12.51-.07A7.07,7.07,0,0,1,0,30.42c1.93,0,3.87,0,5.81,0a1.21,1.21,0,0,1,.87.75,3.21,3.21,0,0,0,3.06,2.45,17.53,17.53,0,0,0,4.8-.19,2.42,2.42,0,0,0,1.62-1.7A2.54,2.54,0,0,0,14.65,30c-2.33-.74-4.75-1.21-7.13-1.84a21,21,0,0,1-3.17-1.05A5.86,5.86,0,0,1,2.06,17.7a9.34,9.34,0,0,1,6.3-3.43,17.46,17.46,0,0,1,9.69,1.08C20.72,16.53,22,18.67,22.27,21.72Z" style="fill:#fff"/><path d="M152.91,29.43H137.27a4.12,4.12,0,0,0,2.39,4.26c2,.93,4.32,1.23,6-.34a5.15,5.15,0,0,1,4.07-1.25h2.84c-.68,4.31-6.26,7.17-12.06,6.34-6.72-1-9.86-5.34-8.95-12.44.71-5.58,5.67-9.13,11.85-8.47C150.16,18.25,153.54,22.37,152.91,29.43Zm-6-3.54c0-2.43-1.63-4-4.31-4.12-2.9-.17-4.74,1.27-5.12,4.12Z" style="fill:#fff"/><path d="M116.37,29.42H100.93a4,4,0,0,0,2.28,4.31,6.12,6.12,0,0,0,6.82-1,2.17,2.17,0,0,1,1.27-.59c1.55-.07,3.11,0,4.67,0-.09,3.81-5.22,6.86-11,6.38-6.73-.56-10.69-4.29-9.94-12,.56-5.83,5.61-9.64,12-8.91C113.7,18.29,117.28,22.73,116.37,29.42Zm-6-3.54c-.08-2.55-1.79-4.06-4.52-4.13s-4.63,1.45-4.87,4.13Z" style="fill:#fff"/><path d="M37,17.4c8.19,0,13.1,6.78,10.44,14.44a9.32,9.32,0,0,1-7.63,6.47c-5.73,1.06-10.55-.79-12.77-5C23,25.61,28.18,17.39,37,17.4ZM42.13,28c0-3.42-1.29-5.48-3.85-6.09A5,5,0,0,0,32,25.65c-1,4,.49,7.62,3.45,8.38a3.64,3.64,0,0,0,.66.11C39.91,34.58,42.12,32.33,42.13,28Z" style="fill:#fff"/><path d="M71,25c-.33,0-.54.08-.76.08h-4.8c-.7-2.34-2.21-3.49-4.73-3.11a3.66,3.66,0,0,0-3.13,2.45,10.23,10.23,0,0,0,0,7.21,3.76,3.76,0,0,0,3.94,2.52c1.77,0,3.05-.68,3.52-2.45a1.3,1.3,0,0,1,1.56-1.08c1.43.05,2.87,0,4.3,0A7.71,7.71,0,0,1,64.65,38a26.48,26.48,0,0,1-7.59-.14,6.47,6.47,0,0,1-4.43-3.32C49.22,29.25,51,21.05,56.24,18.63a12.52,12.52,0,0,1,11.45.42C69.77,20.13,70.79,22.11,71,25Z" style="fill:#fff"/><path d="M129.33,34.35c.48,3.8.48,3.8-3.06,3.81a15,15,0,0,1-2-.1c-3.07-.44-4-1.54-4-4.65,0-3.78,0-7.56,0-11.42l-2.91-.24V18.28l2.9-.22V12.78h5.64V17.9c1.29.23,2.7.1,3.39.74.52.49.11,2,.11,3.12l-3.47.2v8.51C125.9,33.9,125.9,33.9,129.33,34.35Z" style="fill:#fff"/><path d="M109.14,30.31a25.24,25.24,0,0,1-1.49,2.87c-.09.13-.87-.22-1.48-.4-.9.82-3.53.08-3.86-1.41-.07-.28.49-1,.79-1C104.91,30.26,106.73,30.31,109.14,30.31Z" style="fill:#fff"/><path d="M109.25,24.7c-3.19.83-5.5.4-6.09-1.07C105,22.23,108.15,22.73,109.25,24.7Z" style="fill:#fff"/></g></g></svg>