<svg xmlns="http://www.w3.org/2000/svg" viewBox="0 0 216.71 21.64"><g id="Ebene_2" data-name="Ebene 2"><g id="Calque_1" data-name="Calque 1"><path d="M0,19.66c2.91,0,5.82,0,8.74,0H20.26c1.39,0,1.51.14,1.34,1.71-.29,0-.59.05-.89.05H.92c-.31,0-.61.05-.92.07Z" style="fill:#fff"/><path d="M133.86,9.17q-.72,2.51-1.43,5c-.6,2.1-1.22,4.2-1.78,6.31-.16.62-.46.88-1.08.8h-.3c-2.46,0-2.44,0-3.12-2.39-.83-2.92-1.68-5.84-2.52-8.76a1.07,1.07,0,0,0-.41-.6c0,.23,0,.47,0,.7,0,3.35,0,6.7,0,10,0,.76-.24,1-1,1a12,12,0,0,0-1.7,0c-.54,0-.71-.17-.71-.71,0-2.24,0-4.49,0-6.73,0-3.3,0-6.6,0-9.9,0-.61.17-.81.79-.79,1.18.05,2.37.05,3.55,0a.86.86,0,0,1,1,.75c1,3.49,2.07,7,3.11,10.45a1.65,1.65,0,0,0,.45.79,4,4,0,0,0,.23-.57c1-3.46,2-6.92,3-10.39.21-.73.46-1.12,1.34-1,1.33.1,2.68,0,4.1,0a7.41,7.41,0,0,1,.06.77c0,5.54,0,11.09,0,16.63,0,.59-.19.78-.75.76a14.28,14.28,0,0,0-1.85,0c-.67.06-.88-.16-.87-.86,0-3.48,0-7,0-10.44V9.19Z" style="fill:#fff"/><path d="M95.47,9.46A4.65,4.65,0,0,0,98,14.58a4.4,4.4,0,0,0,5.65-1.9,1.46,1.46,0,0,0,0-1,5.31,5.31,0,0,1,0-3.56,1.16,1.16,0,0,0-.27-.92,4.54,4.54,0,0,0-5.66-.74,1.19,1.19,0,0,1-.6.21c.93-1.52,2-3,2.76-4.59a3.11,3.11,0,0,1,3.63-2c1.11.15,2.26,0,3.4.05a1.15,1.15,0,0,1,.82.39c1.23,2,2.43,4,3.63,6a.62.62,0,0,1,0,.16,17.33,17.33,0,0,0-2.2-.83,4.24,4.24,0,0,0-5,5.21.87.87,0,0,0,.86.7,5,5,0,0,1,4,2.65c.31.55.62.55,1.12.33A4.66,4.66,0,0,0,113,10.12a.94.94,0,0,1,.13-.55l1.77,2.95c.55.93,1.14,1.84,1.63,2.8a1.24,1.24,0,0,1,0,1c-.84,1.47-1.73,2.92-2.63,4.36-.14.21-.4.48-.61.48-2.49,0-5,0-7.69,0,.51-.27.84-.43,1.16-.62a4.65,4.65,0,0,0,2-4.83,4.46,4.46,0,0,0-3.59-3.3.74.74,0,0,0-.92.45,5.15,5.15,0,0,1-3.93,2.7c-.56.08-.74.31-.75.83a4.69,4.69,0,0,0,3,4.66.67.67,0,0,1-.21.12,1.61,1.61,0,0,1-.31,0c-2.24,0-4.49,0-6.73,0a1.05,1.05,0,0,1-1-.59c-.84-1.45-1.74-2.87-2.57-4.32a1,1,0,0,1-.08-.83c1.15-2,2.35-3.94,3.55-5.9C95.29,9.56,95.34,9.54,95.47,9.46Z" style="fill:#fff"/><path d="M71.33,9V3.18H75c0,.26,0,.51,0,.76,0,5.48,0,11,0,16.45,0,.71-.24.89-.89.86-.9-.05-1.8,0-2.75,0l-.11-1.18c-.14.06-.28.07-.34.15-1.8,2.28-6,1.61-7.71-.91a8.67,8.67,0,0,1,.15-9.53C65.48,7.11,69.12,7,71,8.85A1.69,1.69,0,0,0,71.33,9Zm-6.39,5.36a5.72,5.72,0,0,0,1.13,3.73,2.32,2.32,0,0,0,3.69.17,6.15,6.15,0,0,0,.61-6.86,2.43,2.43,0,0,0-3.67-.7A4.43,4.43,0,0,0,64.94,14.39Z" style="fill:#fff"/><path d="M37.65,15.78a6.52,6.52,0,0,1-3,4.37,8.57,8.57,0,0,1-12.76-4.72c-1.37-3.95-.9-7.71,2-10.92C27.22.73,33.75,1,36.53,5a18.79,18.79,0,0,1,1.23,2.42c-1.09,0-2,0-2.87,0A.93.93,0,0,1,34.32,7c-2.4-3.26-6.61-3.07-8.58.47A7.77,7.77,0,0,0,26,16.24a5.08,5.08,0,0,0,8.36,0,.91.91,0,0,1,.58-.4C35.79,15.76,36.66,15.78,37.65,15.78Z" style="fill:#fff"/><path d="M179.07,15.72a3,3,0,0,0,3.27,3,3,3,0,0,0,2.56-1.21.78.78,0,0,1,.53-.35c1,0,1.95,0,3.2,0a11.82,11.82,0,0,1-1.38,2.25,6.81,6.81,0,0,1-11.69-3.24,7.34,7.34,0,0,1,3.31-8,6,6,0,0,1,6.5.16,7.9,7.9,0,0,1,3.37,6.54c0,.61-.2.91-.9.9-2.66,0-5.31,0-8,0Zm3-2.44v0h2.62c.5,0,.62-.25.52-.7a3,3,0,0,0-3-2.13A3.1,3.1,0,0,0,179,12.55c-.13.48,0,.74.54.73Z" style="fill:#fff"/><path d="M50.59,15.6a2.75,2.75,0,0,0,1,2.23,3.47,3.47,0,0,0,4.94-.51A.77.77,0,0,1,57,17c1,0,1.9,0,2.93,0a3.75,3.75,0,0,1-1.32,2.49,6.81,6.81,0,0,1-11.55-4,7.21,7.21,0,0,1,5.37-8.22,6.26,6.26,0,0,1,6.53,3,7.89,7.89,0,0,1,1.31,4.53c0,.58-.19.84-.86.83-2.53,0-5.05,0-7.58,0Zm6.1-2.42a.89.89,0,0,0,.1-.26,2.92,2.92,0,0,0-3-2.58,3.25,3.25,0,0,0-3.2,2.29c-.08.46.14.54.51.54h5.63Z" style="fill:#fff"/><path d="M170.21,7.83h3.48V21.31h-3.24V19.84l-.81.53a5.57,5.57,0,0,1-3.83,1.15,3.24,3.24,0,0,1-3-2.31,8,8,0,0,1-.46-2.41c-.06-2.81,0-5.62,0-8.43a5.28,5.28,0,0,1,.06-.55c1,0,1.9,0,2.85,0,.15,0,.39.48.4.74,0,2.35,0,4.69,0,7a6.29,6.29,0,0,0,.16,1.44,1.93,1.93,0,0,0,2,1.66,2.11,2.11,0,0,0,2.2-1.79,12.18,12.18,0,0,0,.17-2C170.23,12.6,170.21,10.26,170.21,7.83Z" style="fill:#fff"/><path d="M143.76,7.75c0,2.45,0,4.77,0,7.09A10.16,10.16,0,0,0,144,17a1.9,1.9,0,0,0,2,1.63A2,2,0,0,0,148.12,17a8.75,8.75,0,0,0,.27-2c0-2.19,0-4.38,0-6.57,0-.54.15-.74.69-.72.75,0,1.5,0,2.25,0,.41,0,.61.12.61.57,0,4.12,0,8.25,0,12.37,0,.19-.27.54-.43.55-.92.05-1.84,0-2.82,0l-.1-1.31a21.57,21.57,0,0,1-2.73,1.28c-2.53.79-4.37-.28-5-2.86a8.89,8.89,0,0,1-.28-2.06c0-2.55,0-5.1,0-7.65,0-.74.23-.94.92-.9S142.91,7.75,143.76,7.75Z" style="fill:#fff"/><path d="M153.16,7.75l.19-.07c1.53-.14,1.53-.14,1.53-1.68,0-.67,0-1.34,0-2a.72.72,0,0,1,.47-.5c1,0,2,0,3.06,0V6.59c0,1,0,1,1,1.06h1.28c0,.75,0,1.44,0,2.12,0,.14-.27.27-.43.39s-.15,0-.23,0c-1.65.05-1.65.05-1.65,1.67s0,3.3,0,4.95c0,1.41.37,1.76,1.8,1.73a3.25,3.25,0,0,1,.54,0c.08,0,.14,0,.25.09V21.1a9,9,0,0,1-4,0,2.38,2.38,0,0,1-1.75-1.79,8.32,8.32,0,0,1-.3-2c0-2.09-.05-4.17,0-6.26,0-.7-.19-1-.91-.91s-.91-.14-.86-.8C153.19,8.78,153.16,8.27,153.16,7.75Z" style="fill:#fff"/><path d="M81.49,10.13V7.86a1.56,1.56,0,0,1,.32-.07c1.4-.1,1.4-.1,1.4-1.47,0-.9,0-1.79,0-2.77,1.13,0,2.13,0,3.13,0,.16,0,.42.39.43.61,0,.92,0,1.85,0,2.78,0,.58.15.87.78.81s1,0,1.5,0v2.41c-.53,0-1.06,0-1.58,0s-.69.1-.69.59c0,2.19,0,4.37,0,6.56,0,.91.43,1.23,1.41,1.27,1.2,0,1.21,0,1.2,1.19,0,1.57.3,1.5-1.54,1.55-.54,0-1.09,0-1.63,0-1.84-.08-2.88-1.23-2.93-3.36s0-4.49-.06-6.73c0-1,0-1-1-1.06Z" style="fill:#fff"/><path d="M39.48,7.68h3.29l.1,1.43c.23-.19.38-.3.51-.43a4.92,4.92,0,0,1,3-1.34c.48,0,.73.13.69.66s.13,1.3-.14,1.73-1,.37-1.49.53a3.19,3.19,0,0,0-2.38,3.23c0,2.34-.06,4.68-.06,7,0,.6-.18.82-.79.79s-1.5,0-2.24,0c-.39,0-.55-.14-.55-.55C39.48,16.43,39.48,12.11,39.48,7.68Z" style="fill:#fff"/><path d="M190.2,3.15h3.27V21.22c-1,0-1.94,0-2.91,0-.12,0-.29-.23-.34-.39a2.63,2.63,0,0,1,0-.69v-17Z" style="fill:#fff"/><path d="M80.39,7.77V21.21c-1.09,0-2.18,0-3.27,0-.11,0-.29-.48-.29-.74,0-3.55,0-7.11,0-10.66,0-2,0-2,2-2Z" style="fill:#fff"/><path d="M196.89,21.41c-.14-1.7-.14-1.69,1.46-1.69h18.36v1.69Z" style="fill:#fff"/><path d="M80.37,6.28H76.8c0-.94,0-1.84,0-2.73a.61.61,0,0,1,.43-.39c1,0,2,0,3.12,0Z" style="fill:#fff"/><path d="M52.53,5.89c.31-1,.59-1.89.89-2.78a.53.53,0,0,1,.4-.26c1,0,2,0,3.21,0-.65,1.06-1.19,2-1.76,2.87a.54.54,0,0,1-.39.17C54.14,5.9,53.4,5.89,52.53,5.89Z" style="fill:#fff"/></g></g></svg>