<svg xmlns="http://www.w3.org/2000/svg" viewBox="0 0 170.89 139"><g id="Ebene_2" data-name="Ebene 2"><g id="Calque_1" data-name="Calque 1"><path d="M122,139c.06-5.21.09-10.43.22-15.64a28.68,28.68,0,0,1,.54-5.16c.9-4.32,3-5.92,7.3-5.74,4.12.17,6.57,2.2,7.13,6.15a23.12,23.12,0,0,1,.15,5.19c-.44,5.3-2.7,7.31-8.07,7.38h-3.79V139Zm4-16.19-.49.14c.52,1.63.56,4.12,1.65,4.73,3.66,2,7.46-.53,7.59-4.7,0-1.15,0-2.31-.05-3.46-.16-2.79-1.88-3.72-4.42-3.74s-4.11,1.26-4.27,3.91C126,120.73,126,121.77,126,122.81Z" style="fill:#fff"/><path d="M0,139c0-6.5-.09-13,.12-19.49.16-4.51,2.3-6.69,6.15-7,4.7-.38,7.64,1.35,8.32,5.87a22.14,22.14,0,0,1-.72,9.11c-.87,3-3.81,4-6.78,3.64-3.53-.4-5,.82-4.42,4.4A26.65,26.65,0,0,1,2.8,139Zm2.68-16c.15,2.36-.95,5.32,3.47,5,4.57-.29,5.86-1.37,5.89-6.14s-1.1-6.14-4.62-6.1C3.71,115.83,2.7,117.36,2.69,123Z" style="fill:#fff"/><path d="M118,75.74c-13.35,16.65-42.48,20.57-62,3.55C36.22,62,35.52,30.81,54.54,12.48c18.64-18,48.86-16.22,64.66,3.2-4.92-.12-10.42-1-15.67-.24-15.72,2.33-22.39,13-23.32,26.42a45.17,45.17,0,0,0,2,16.7c3.39,10.55,11.64,15.86,22.38,17.1C109.11,76.18,113.74,75.74,118,75.74Z" style="fill:#fff"/><path d="M128.16,57.1c-1.53,1.27-3.09,2.52-4.6,3.82-3.81,3.29-7.74,6.27-13.14,6.32-9.93.09-16.86-7.48-15.91-18.1h35.24l-.74,7c5.17,1.82,6,3.87,2.47,8.37a35.07,35.07,0,0,1-8.84,7.64l6.66-14.25Z" style="fill:#fff"/><path d="M122,40.4H94.3c.21-5.84,1.83-10.86,6.76-14.12a12.62,12.62,0,0,1,14.13-.15C120.32,29.25,121.58,34.51,122,40.4Z" style="fill:#fff"/><path d="M92.18,130.8c0-3.43-.09-6.68,0-9.91.12-3.06.51-6.27,3.73-7.67,3.38-1.46,6.78-1.26,9.28,1.17,2.54-.7,4.79-1.7,7.09-1.85,3.92-.25,6.44,2,6.71,5.9.28,4.13.06,8.3.06,12.35-2.21.77-3.15.31-3.09-1.87.08-3,0-6,0-9s-1.68-4.12-4.46-4.08-4.26,1.5-4.28,4.32c0,3.58,0,7.16,0,10.86h-3.14c0-3.53,0-6.88,0-10.23,0-3-1-4.95-4.39-4.95-3.17,0-4.32,1.22-4.37,4.84,0,2.67-.1,5.34,0,8C95.42,130.82,94.71,131.69,92.18,130.8Z" style="fill:#fff"/><path d="M18.35,121.77C18.29,115,21,112,26.56,112.53c3,.27,5.15,1.82,5.87,4.59A19.51,19.51,0,0,1,33,124.6c-.69,4.81-3.32,6.79-7.77,6.57-4-.2-6.35-2.73-6.85-7.32A18,18,0,0,1,18.35,121.77Zm3-.36c0,4.55,1.23,6.39,4.33,6.5s4.47-1.82,4.45-6.36c0-4.33-1.16-5.78-4.55-5.76S21.41,117.08,21.4,121.41Z" style="fill:#fff"/><path d="M165.85,122.44c-1.15,2.41-1.79,5.34-3.57,7.13-3.67,3.7-10.33,1.5-11.5-3.63a18.78,18.78,0,0,1-.28-7.16c.88-5,3.16-6.65,7.87-6.25,4.17.35,6.5,3.06,6.69,7.8,0,.58,0,1.16,0,1.74Zm-12.48-1c0,4.21,1.61,6.39,4.61,6.43s4.63-2.2,4.58-6.41c-.05-4-1.52-5.81-4.78-5.73C154.71,115.84,153.32,117.64,153.37,121.48Z" style="fill:#fff"/><path d="M76.24,122.08c.06,5.6,3.08,7.62,7.75,5.85a4.5,4.5,0,0,1,3.09.18c-2.37,3.27-5.52,3.47-8.78,2.79s-4.66-3-5.34-6.11c-1.06-4.85.49-10.41,4-11.52a12,12,0,0,1,7.24.34c2.58,1,3.55,4.34,3.24,8.47ZM85,120.69c-.23-3.64-1.85-5.56-4.28-5.46-2.58.11-4,2.15-3.72,5.46Z" style="fill:#fff"/><path d="M60.32,122.09H48.76c.85,2.13,1.05,4.39,2.19,5.06,1.55.91,3.81.73,5.78.82a22.05,22.05,0,0,1,3.55,0c-2.82,3.39-6.22,4.09-10,2.57-3.43-1.39-4.32-4.24-4.27-7.58a23,23,0,0,1,.31-5.19c1-3.91,4.39-5.85,8.58-5.13C58.88,113.28,60.84,116.53,60.32,122.09Zm-2.38-1.23c0-3.41-1.46-5.4-3.92-5.41-1.48,0-3,1.82-4.36,3-.1.09.91,2.2,1.56,2.29A47.67,47.67,0,0,0,57.94,120.86Z" style="fill:#fff"/><path d="M130.69,46.79c.3-10-2.67-18.86-7.85-27.58,9,4.7,13.63,12.7,12.94,21.76C135.56,43.89,134.53,46.12,130.69,46.79Z" style="fill:#fff"/><path d="M36.42,105.55c2.55-1,3.17,0,3.13,2.13-.08,5,0,10,0,15,0,4.64.2,4.86,4.71,5.73a8.66,8.66,0,0,1,.14,1.27,10.54,10.54,0,0,1-.19,1.29c-5.44.05-7.73-2-7.76-7.07C36.39,117.74,36.42,111.62,36.42,105.55Z" style="fill:#fff"/><path d="M148.15,128.06v4.1a63,63,0,0,1-6.71-4c-.74-.58-1-2.1-1.05-3.2-.09-6.47,0-12.94,0-19.37,2.39-1,3.17-.23,3.13,2-.09,5.1.08,10.2-.06,15.3C143.32,126.19,144.12,128.45,148.15,128.06Z" style="fill:#fff"/><path d="M168.12,121.77c0-2.43-.08-4.87,0-7.29,0-.61.71-1.17,1.09-1.76.53.57,1.52,1.13,1.53,1.72.13,5,.13,10,0,14.93,0,.6-1,1.17-1.51,1.75-.39-.57-1.09-1.12-1.12-1.71C168.05,126.87,168.12,124.32,168.12,121.77Z" style="fill:#fff"/><path d="M18.17,109.16c7.89-4.86,5.75-5.27,13.53-.12-1.05.38-2,1-2.3.79-2.82-2.18-5.51-2.38-8.38-.11C20.67,110,19.69,109.48,18.17,109.16Z" style="fill:#fff"/></g></g></svg>